<svg id="visual" viewBox="0 0 1400 600" width="1400" height="600" xmlns="http://www.w3.org/2000/svg" xmlns:xlink="http://www.w3.org/1999/xlink" version="1.1"><path d="M0 301L82 301L82 181L165 181L165 283L247 283L247 223L329 223L329 181L412 181L412 289L494 289L494 241L576 241L576 157L659 157L659 163L741 163L741 235L824 235L824 157L906 157L906 205L988 205L988 169L1071 169L1071 247L1153 247L1153 265L1235 265L1235 181L1318 181L1318 211L1400 211L1400 223L1400 0L1400 0L1318 0L1318 0L1235 0L1235 0L1153 0L1153 0L1071 0L1071 0L988 0L988 0L906 0L906 0L824 0L824 0L741 0L741 0L659 0L659 0L576 0L576 0L494 0L494 0L412 0L412 0L329 0L329 0L247 0L247 0L165 0L165 0L82 0L82 0L0 0Z" fill="#ffffff"></path><path d="M0 493L82 493L82 451L165 451L165 457L247 457L247 415L329 415L329 469L412 469L412 481L494 481L494 445L576 445L576 421L659 421L659 463L741 463L741 493L824 493L824 451L906 451L906 451L988 451L988 445L1071 445L1071 415L1153 415L1153 451L1235 451L1235 415L1318 415L1318 427L1400 427L1400 481L1400 221L1400 209L1318 209L1318 179L1235 179L1235 263L1153 263L1153 245L1071 245L1071 167L988 167L988 203L906 203L906 155L824 155L824 233L741 233L741 161L659 161L659 155L576 155L576 239L494 239L494 287L412 287L412 179L329 179L329 221L247 221L247 281L165 281L165 179L82 179L82 299L0 299Z" fill="#f2f2f2"></path><path d="M0 601L82 601L82 601L165 601L165 601L247 601L247 601L329 601L329 601L412 601L412 601L494 601L494 601L576 601L576 601L659 601L659 601L741 601L741 601L824 601L824 601L906 601L906 601L988 601L988 601L1071 601L1071 601L1153 601L1153 601L1235 601L1235 601L1318 601L1318 601L1400 601L1400 601L1400 479L1400 425L1318 425L1318 413L1235 413L1235 449L1153 449L1153 413L1071 413L1071 443L988 443L988 449L906 449L906 449L824 449L824 491L741 491L741 461L659 461L659 419L576 419L576 443L494 443L494 479L412 479L412 467L329 467L329 413L247 413L247 455L165 455L165 449L82 449L82 491L0 491Z" fill="#e5e5e5"></path></svg>